<?xml version="1.0" encoding="UTF-8" standalone="no"?>
<svg
   id="Layer_1"
   data-name="Layer 1"
   width="450.38"
   height="536.96"
   viewBox="0 0 450.38 536.96"
   version="1.1"
   sodipodi:docname="spiderman-silhouette-svg-cutting-file-free-cricut-design.svg"
   inkscape:version="1.2.1 (9c6d41e410, 2022-07-14)"
   xmlns:inkscape="http://www.inkscape.org/namespaces/inkscape"
   xmlns:sodipodi="http://sodipodi.sourceforge.net/DTD/sodipodi-0.dtd"
   xmlns="http://www.w3.org/2000/svg"
   xmlns:svg="http://www.w3.org/2000/svg"
   xmlns:rdf="http://www.w3.org/1999/02/22-rdf-syntax-ns#"
   xmlns:cc="http://creativecommons.org/ns#"
   xmlns:dc="http://purl.org/dc/elements/1.1/">
  <title
     id="title1170">Spiderman Silhouette SVG Cutting File - Free Cricut Design</title>
  <defs
     id="defs22" />
  <sodipodi:namedview
     id="namedview20"
     pagecolor="#ffffff"
     bordercolor="#000000"
     borderopacity="0.25"
     inkscape:showpageshadow="2"
     inkscape:pageopacity="0.0"
     inkscape:pagecheckerboard="0"
     inkscape:deskcolor="#d1d1d1"
     showgrid="false"
     inkscape:zoom="1.5159415"
     inkscape:cx="225.27254"
     inkscape:cy="268.80984"
     inkscape:window-width="1920"
     inkscape:window-height="1001"
     inkscape:window-x="-9"
     inkscape:window-y="-9"
     inkscape:window-maximized="1"
     inkscape:current-layer="Layer_1" />
  <g
     id="SPLINE">
    <g
       id="g12">
      <path
         d="m35.87,329.39c-2.99,10.56-2.64,20.06,1.14,28.05,4.73,7.73,8.94,14.15,13.98,17.73,7.89,6.88,17.65,11.77,27.98,15.09,25.58,8.2,51.57,14.55,78.46,16.96,17.05,1.52,33.93,0,50.85-1.29,7.08-.54,13.39,1.14,19.48,4.33,2.09,1.1,3.31,2.87,3.98,5.39,4.08,15.34,1.28,30.06-3.61,44.63-.66,1.94-1.73,3.82-3.54,4.69-5.89,2.8-9.98,7.71-14.6,11.98-5.54,5.11-8.52,11.51-9.09,19.03-.2,2.61.39,4.05,3.62,3.96,9.1-.23,18.26.43,27.32-.24,10.18-.74,19.68-3.74,25.44-13.31,2.22-3.7,4.28-7.5,6.36-11.29,6.95-12.71,14.47-24.99,25.74-34.45,4.33-3.63,8.85-7.05,12.19-11.73,2.66-3.74,4.3-7.57,2.97-12.39-2.14-7.75-8.08-11.58-14.69-14.7-2.69-1.27-4.76-2.46-5.87-5.65-1.14-3.31-2.55-6.56-3.71-9.9-.56-1.6-1.88-3.89.17-4.66,1.93-.72,2.17,2.04,2.84,3.38,2.03,4.08,4.41,7.94,7.17,11.55,1.01,1.33,2.44,2.68,4.24,1.74,1.61-.85.74-2.55.52-3.93-.66-4.17-1.8-8.22-3.35-12.16-.57-1.42-1.71-3.04-.34-4.3,1.38-1.28,3.42-1.19,5.04-.27,8.98,5.07,18.85,6.94,28.88,8.35.92.13,1.99,1.03,2.66-.27.21-.41.16-.73,0-1-.27-.44-.85-.75-1.15-1.14-3.61-4.87-7.45-9.59-10.8-14.63-2.81-4.24-5.31-8.74-7.47-13.35-3.19-6.78-5.08-14.02-4.24-21.56.27-2.41.27-4.46-.82-6.56-3.23-6.22-2.93-12.77-1.68-19.36.19-1.02,1.41-2.04-.03-2.86-1.14-.64-2.01.17-2.88.98-5.93,5.5-11.14,11.69-16.65,17.61-.86.92-1.48,2.11-1.14,3.34,1.17,4.37,1.75,8.86,3.18,13.18,1.22,3.68,3.07,7.27,2.67,11.79-1.95-1.95-2.26-4.19-2.85-6.25-2.01-7.1-5.24-13.93-5.32-21.52-.03-2.87-.6-5.97,3.74-6.39.7-.06,1.33-1.09,1.93-1.73,1.46-1.53,2.91-3.05,4.28-4.64,6.15-7.13,14.12-12.9,17.29-22.57.42-1.23.95-2.03,1.63-3.04,4.21-6.27,10.6-9.99,16.64-14.08,4.81-3.27,12.47-4.8,16.84-3.74-.09.18-.14.47-.28.54-.49.25-1.02.43-1.53.62-10.15,3.66-18.6,8.64-25.09,16.2-.45.52-.9,1.06-1.74,2.22-.3.41-.67.92-1.84,3.09-1.7,3.47-3.3,7.14-3.63,11.15-.5,6.2-.97,12.42.86,18.47,2.32,7.66,7.42,13.82,11.87,20.23,1.53,2.19,3.2,4.23,4.99,6.14,5.37,5.75,11.79,10.42,18.31,14.9,2.35,1.61,4.95,3.05,7.65,3.96,2.65.9,3.84,2.48,4.74,4.99,4.84,13.38,5.93,27.23,5.48,41.29-.03,1.01.31,2.25-1.23,2.93-.85-1.33-1.25-2.76-1.64-4.25-1.45-5.57-2.36-11.32-4.67-16.6-5.77-13.21-11.96-26.17-21.54-37.44-3.11-3.61-6.12-6.62-9.13-9.39-3.87-3.58-7.77-6.77-11.94-10.3-.95-.81-2.1-.6-1.83.97.71,4.25.93,8.6,2.65,12.65,4.75,11.28,11.07,21.72,17.44,32.11.21.34.42.69.62,1.03,8.04,13.24,14.81,26.98,18.55,42.21,4.08,16.65,2.99,32.53-4.69,47.87-1.5,3-3.07,5.82-2.45,9.38.59,3.36.81,6.78,1.39,10.14.21,1.27.77,2.56,2.18,3.16,2.96,1.25,5.91,2.42,9.15,2.86,8.3,1.14,16.64.25,24.95.6,12.44.53,24.09-2.66,35.44-7.34,2.4-3.51,1.76-8.41.53-13.18-1.11-3.52-2.15-6.91-4.26-9.98-7.82-11.38-14.57-23.22-16.06-37.43-.84-8-1.66-15.92.37-23.8,2.33-9.03,6.62-17.36,9.54-26.19,2.67-8.07,7.77-15.15,10.32-23.31,1.54-5.56,1.02-11.22-.52-16.81-.52-1.82-.57-1.97-.61-2.11-2.01-6.56-6.48-12.2-11.46-17.78-2.65-2.97-5.11-6.15-6.96-9.72-.35-.65-.83-1.49-.07-2.13.78-.66,1.4.04,2.03.49,1.36.95,2.73,1.88,4.09,2.82.63.44,1.29,1.13,2.06.53.69-.53.59-1.5.29-2.18-2.48-5.68-4.21-11.73-7.95-16.76-7.6-10.25-15.22-20.49-27.27-26.18-3.07-1.45-2.98-2.77-.13-4.75,5.18-3.62,9.33-8.2,12.83-13.39,4.29-6.35,9.21-12.19,14.47-17.74,4.34-4.61,4.86-8.25,1.79-13.8-1.62-2.91-3.04-5.9-4.41-8.94-4.6-10.19-8.77-20.56-14.11-30.43-3.68-6.78-7.02-13.77-7.98-21.67-.65-5.37-1.72-10.71-3.03-15.96-2.02-8.11-7.36-14.13-13.77-19.03-3.16-2.42-4.88-5.22-5.59-8.94-3.75-19.68-17.03-31.11-34.39-38.33-10.48-4.36-21.89-5.1-33.06-3.31-7.81,1.25-14.63.48-21.96-2.74-15.17-6.64-31.44-8.15-47.88-7.39-3.12.14-4.93-.82-6.44-3.35-5.92-9.95-14.4-17.4-23.91-23.69-5.79-3.83-12.24-6.52-19.33-6.2-17.41.79-31.56,7.91-41.24,22.72-4.25,6.5-6.3,13.76-6.06,21.64.27,8.62,3.17,16.52,6.5,24.26,1.22,2.84.7,4.13-1.96,5.71-10.79,6.45-17.65,16.45-22.61,27.61-3.58,8.06-4.64,16.84-3.63,25.72.22,1.94-.4,3.17-1.83,4.61-5.16,5.15-9.5,10.95-10.22,18.55-1.44,15.1-6.73,29.05-13.19,42.5-5.14,10.68-11.74,20.58-18.88,30.09-2.1,2.8-4.29,5.73-4.45,9.5-.17,4.21-.35,8.42-.41,12.63-.05,2.9,4.5,8.19,7.36,8.29,5.18.18,9.72,1.84,13.8,4.99.7.66,1.27,1.87,3.23,2.66,10.62,4.04,21.31,3.24,31.92,2.73,3.51-.15,7.74-.28,12.44-.07-4.51,1.5-8.35,1.98-12.47,2.4-10.63,1.17-22.13.16-28.03-.83-4.54-.81-5.62-.16-7.82,1.62-6.12,4.95-12.09,10.07-17.95,15.34-5.13,4.62-7.93,10.08-10.09,17.56Zm40.54-84.35c2.48-.38,51.54,10.61,55.03,12.32-16.02,1.84-40.39-3.63-55.03-12.32Zm5.71-7.7c-3.95.4-3.14-2.8-3.09-4.43.34-12.32,3.27-23.98,9.86-34.53,1.3-2.09,2.79-4.19,5.31-5.07.49.55.18.96,0,1.33-.52,1.1-1.07,2.18-1.63,3.26-5.95,11.27-9.42,23.09-7.78,36,.27,2.2-.28,3.2-2.67,3.44Zm-22.57,35.59c12.03-4.83,53.73-2.55,60.02,3.34-19.98-2.04-40.1-.92-60.02-3.34Zm25.44,52.65c2.76,1.04,3.74,2.35,4.6,3.78,1.42,2.32,3.39,3.44,6.16,3.93,7.07,1.22,13.92-.14,20.83-1.08,13.84-1.9,27.64-4.14,41.64-4.52,4.58-.12,5.52-.63,4.15-3.79-.22-.52-.5-1.12-.85-1.79-.1-.19-.3-.35-.38-.54-3.29-7.59-6.14-15.28-4.27-23.76,1.42-6.39,1.54-6.34-5.24-6.29-3.04.02-6.14.79-9.44-.81,2.25-1.29,4.37-1.63,6.59-1.72,2.99-.14,6-.23,8.96-.61,4.58-.6,4.58-.7,4.4,3.98-.04,1-.21,1.99-.27,2.98-.33,5.19-1.47,10.35-.81,15.6.54,4.29,1.1,8.58,2.83,12.42.91,2.01,2.13,3.91,3.85,5.61,1.4,1.4,3.65,3.48,4.93,2.5,3-2.29,3.1-.24,3.85,1.65.67,1.67,1.76,3.09,3.12,4.26.42.36.77.73,1.05,1.12.37.49.92.78,1.55.78h.08c.65-.04,1.21-.37,1.55-.92.66-1.1,1.26-2.44,2.16-3.7.46,2.79,1.91,5.04-.25,7.04-1.67,1.55-3.14.26-4.5-.85-4.04-3.93-9.27-4.88-14.85-3.99-2.41.38-4.82.74-7.22,1.08-7.36,1.04-14.6,2.66-21.78,4.55-.99.27-2.51.34-2.28,1.87.16,1.1,1.36,1.32,2.39,1.41,1.43.14,2.87.31,4.3.35,9.53.27,19.08.26,28.52,1.87,1.36.24,2.87.23,3.88,1.59-1.16,1.06-2.55,1.44-3.96,1.58-8.17.85-16.19,2.55-24.24,4.04-.76.15-1.68.13-1.71,1.14-.02.87.75.87,1.5,1.11,8.33,2.56,16.74,5.04,25.37,6.39,10.42,1.64,21.04,1.55,31.47,2.9,14.31,1.87,28.61.82,42.91,1.04,1.34.03,1.97-.3,2.11-1.8.56-6.06,1.24-12.12,1.9-18.17.89-8.17.63-16.35.6-24.54-.02-2.02,0-4.05.03-6.07.1-5.32,2.11-9.97,5.68-13.84,7.79-8.44,16.33-16.1,24.14-24.56.67-.71,1.33-1.44,1.98-2.17,10.74-12.03,21.85-23.74,32.19-36.14,8.73-10.46,15.61-22.34,24.9-32.37,1.32-1.35.62-2.01-1.37-2.94-2.08-.8-4.46-1.36-6.73-2.22-10.17-3.77-20.63-6.52-31.07-9.37-8.08-2.19-15.02-3.12-24.29-6.39-1.27-.39-2.43-.16-3.65.75-2.01,1.49-2.93,4.14-5.62,5.17.56-2.48,2.14-4.1,3.56-5.71,1.68-1.9,3.52-3.56,6.59-2.78,13.94,3.5,28.14,5.95,41.84,10.42,7.28,2.38,14.18,4.13,21.33,8.41,3.24,1.72,5.86.89,7.34-1.2.98-1.37.17-2.01-.78-2.67-6.68-4.64-12.54-10.22-17.95-16.25-5.33-5.95-10.32-12.2-12.94-19.95-.28-.82-1.02-2.08.26-2.58.88-.36,1.51.69,1.96,1.46,3.95,6.67,9.43,12.06,14.97,17.33,4.16,3.94,8.05,8.34,13.74,10.26,3.47,1.18,4.82.55,6.18-2.77,1.11-2.72,1.32-5.6,1.52-8.47.51-7.18-.42-14.26-1.79-21.33.51.39.81.84,1.03,1.32,4.28,9.4,6.45,19.25,6.75,29.6.16,5.55-.39,6.3,5.69,5.17.41-.08.89,0,1.03.79-1.96,1.06-3.94,2.25-6.01,3.26-13.9,6.73-24.78,16.92-33.81,29.3-5.04,6.89-9.89,13.99-15.63,20.27-8.53,9.32-16.2,19.4-25.29,28.22-1.59,1.56-3.14,3.15-4.66,4.77-6.56,7.05-12.49,14.68-19.1,21.68-5.89,6.22-9.49,13.18-9.49,21.6,0,1.09.05,2.21.18,3.34.4,3.73.25,7.54.04,11.31-.12,2.2.72,2.86,2.72,3.21,5.69,1.03,11.42,1.62,17.18,1.79,2.92.08,3.77,1.57,3.32,4.05-.7,3.86-.51,7.75-.61,11.64-.14,5.4-.6,5.87-6.02,5.59-4.76-.24-9.54-.39-14.28-.91-2.73-.29-3.35.7-3.06,3.13.36,2.98.49,5.97.85,8.95.37,3.14-.15,3.71-3.1,2.34-3.5-1.61-7.1-2.19-10.87-2.05-20.28.76-40.39-.62-60.17-5.22-11.98-2.77-23.72-6.41-35.3-10.57-6.41-2.31-12.74-4.47-19.79-4.76-8.95-.38-17.77-2.27-25.75-6.87-1.36-.78-2.48-.87-2.22,1.58.27,2.44-.69,4.74-2.93,6.4,1.86-11.07-2.3-20.65-7.93-30.62Zm11.64-85.89c-1.03-1.57.91-2.31,1.78-3.01,3.27-2.66,6.55-5.3,9.55-8.28,5.43-5.37,11.37-10.15,16.24-16.19,4.91-6.08,7.96-13.31,13.59-19.98-1,3.89-1.83,6.97-3.21,9.88-4.78,10.06-11.81,18.52-19.65,26.22-4.31,4.24-9.58,7.52-14.48,11.15-1.14.85-2.76,1.8-3.82.2Zm3.7-78.42c-.3-2.2-.43-4.39-.27-6.63.81-10.9,4.92-20.57,11-29.45,1.83-2.67,4.16-5.05,8.04-6.48-1.21,2.19-2.02,3.85-3.01,5.39-5.39,8.46-8.44,17.7-9.34,27.67-.25,2.77,1.12,4.43,3.65,5.19,2.45.74,4.92,1.05,7.51.39,2.02-.52,4.14-.72,6.24-.92.93-.09,2.31-.37,2.61.81.31,1.15-.95,1.44-1.83,1.94-6.07,3.54-13.03,4.03-19.61,5.77-3.52.92-4.46-.03-4.98-3.68Zm7.5,82.12c1.57-1.24,2.85-2.47,4.33-3.37,18.74-11.37,29.17-28.48,34.13-49.37.71-2.99,1.34-6.04,1.39-9.16.02-1.29-.38-3.17.95-3.61,1.58-.52,2.4,1.33,3.13,2.47,2.83,4.46,7.38,7.32,10.45,11.56.49.47,1.19,1.23,1.77,1.84.5.53.92.94,1.35,1.35,1.66,1.57,3.4,2.96,5.15,4.22l1.8-1.29c-1.25-.93-2.45-1.94-3.66-2.98-1.19-1.02-2.38-2.07-3.09-3.42-.23-.44-.41-.92-.6-1.38-.19-.75-.56-1.46-.72-2.21-.16-.74-.37-1.67.43-2.11.84-.48,1.44.3,1.99.82.64.6,1.25,1.26,1.8,1.96,5.06,6.51,11.27,10.82,19.71,12.23,1.84.3,3.32.52,4.57.57,3.85.15,5.32-1.26,7.65-6.16,1.03-2.19.71-3.41-1.3-4.62-4.66-2.83-4.96-4.08-2.58-9.05,1.37-2.86,2.25-2.92,4.09-.3,1.84,2.64,7.31,3.9,10.3,2.37,2.8-1.43,4.02-5.05,2.87-8.54-1.12-3.36.22-4.98,3.79-4.79,3.11.16,5.02,1.49,5.23,4.74.09,1.44.3,2.9.16,4.32-.2,2.05.77,2.79,2.61,2.97,3.86.37,7.72.82,11.59,1.14,1.3.11,2.78.23,3.74-.92,3.87-4.67,8.35-8.84,11.27-14.3.95-1.78,1.16-3.07-.05-4.82-2.84-4.09-5.5-8.3-8.15-12.52-.67-1.08-1.87-2.37-.98-3.63.9-1.26,2.54-.52,3.76-.29,4.13.77,8.19,1.92,12.33,2.57,15.25,2.38,30.1,6.39,44.97,10.39,2.99.81,4.51,2.53,5.48,5.14.33.9,1.16,1.88.37,2.79-.77.9-1.85.4-2.81.13-4.36-1.24-8.67-2.72-13.09-3.68-6.48-1.4-12.93-2.9-19.35-4.54-7.39-1.9-14.66-4.32-22.22-5.55-.71-.12-1.57-.65-2.06.32-.38.74.34,1.21.71,1.72,1.6,2.12,3.26,4.21,4.83,6.37,1.26,1.74,1.53,3.25.05,5.37-3.63,5.15-6.75,10.65-10.22,15.91-1.56,2.36-.03,4.17,1.34,5.12,1.53,1.07,2.14-1.21,2.91-2.22,4.61-6.1,8.03-12.98,12.91-18.9,1.22-1.48,2.52-2.04,4.32-1.66,1.73.38,3.47.72,5.19,1.1,9.4,2.05,18.8,4.08,28.14,6.43,4.38,1.1,8.87,1.77,13.13,3.36,1.53.57,4.07,1.07,3.54,2.82-.61,2.05-2.92.7-4.36.22-13.7-4.54-28.01-6.33-42.01-9.5-3.29-.74-6.15-.45-8.05,3.21-1.57,3.02-3.96,5.61-5.94,8.42-2.16,3.09-4.17,6.29-6.42,9.31-1.92,2.6-.25,5,1.21,6.15,1.09.87,1.78.37,2.28-.46.4-.67.7-1.56.99-2.08,3.25-5.81,6.57-11.55,10.93-16.64,1.14-1.33,2.29-2.43,4.02-2.39,2.15.09,4.58.7,6.74,1.14,11.27,2.31,22.37,5.27,33.44,8.4,4.1,1.15,8.41,1.73,12.53,2.99.76.23,1.99.47,1.53,1.68-.33.85-1.35.55-2.09.38-2.24-.54-4.52-1-6.72-1.71-8.03-2.61-16.34-4.06-24.54-6-6.02-1.43-12.19-2.33-18.93-4.19-1.1-.3-2.19.03-2.93.89-4.96,5.76-8.64,12.43-13.17,18.49-.3.4-.6.8-.92,1.2-1.3,1.68-1.27,3.18-.03,4.46,2.56,2.65,2.68,5.84,2.53,9.16-.08,1.95.74,3.24,2.3,4.44,3.35,2.57,7.41,3.35,11.18,4.86,1.75.7,3.52,1.34,5.21,2.18,1.75.88,3.34,4.99,2.22,5.88-1.34,1.06-2.97-.06-4.19-.68-2.82-1.39-5.8-2.27-8.82-2.87-5.42-1.11-10.94-2.33-16.35-.04-4.5,1.9-8.78,4.27-12.54,7.43-1.16.98-2.1,1.41-3.5.49-3.26-2.14-6.89-3.58-10.47-5.04-1.33-.54-2.18-1.32-1.92-2.69.67-3.52-1.61-4.86-4.15-6.27-2.11-1.18-4.05-2.69-6.08-4.03-2.29-1.51-4.94-1.81-7.57-2.16-1.39-.17-1.85.57-1.27,1.83,2.18,4.74,4.26,9.43,9.03,12.42,3.76,2.35,8.11,2.89,11.99,4.8,6.57,3.24,12.65,6.79,15.57,14.15,1.22,3.06,3.27,5.79,5.5,8.29.63.7,1.53,1.36,1.06,2.58-2.31,6.02-2.09,12.43-2.82,18.7-.47,3.93-7.77,9.46-11.74,9.04-10.69-1.14-21.25-3.11-31.88-4.69-2.11-.31-3.25-1.45-3.77-3.57-.67-2.68-1.7-5.26-2.53-7.91-1.38-4.42-4.42-6.75-8.86-8.01-15.99-4.57-32.6-6.14-48.61-10.62-8.81-2.45-17.84-4.19-26.44-8.3Zm10.21-70.08c-.08-.23-.16-.46-.23-.69,7.45-2.33,14.87-4.75,22.35-6.99,5.25-1.57,5.78-1.1,6.57,4.83-2.31-1.76-4.57-1.65-7.2-1.08-7.11,1.54-14.33,2.65-21.5,3.93Zm14.05-52.66c-.48-.86-1.1-1.92-.44-2.74.57-.7,1.68-.27,2.53-.05,1.5.38,2.97.89,4.48,1.2,6.7,1.42,13.61,2.11,19.64,5.82,1.24.76,2.54,1.36,2.63,3.11.16,2.68.46,5.45-1.06,7.78-1.33,2.05-.51,3.36.98,4.55,2.58,2.07,5.18,4.09,7.88,5.95,3.75,2.62,7.69,4.93,11.99,6.65,1.2.48,2.43.91,3.68,1.28,8.09,2.43,13.63,1,17.23-5.65,8.2-15.17,14.11-31.04,13.43-48.69-.03-.85-.28-2.07.74-2.32.97-.23,1.52.88,1.76,1.69,1.93,6.72,3.68,13.49,2,20.54-1.68,7.04-4.54,13.66-7.24,20.33-.26.65-1.19,1.27-.47,2.08.8.89,1.62.19,2.4-.16.5-.24.99-.49,1.46-.78,5.81-3.48,11.25-7.51,16.63-11.61,4.74-3.62,9.58-7.1,14.73-10.92.17,1.54-.41,1.91-.85,2.39-9.02,9.66-19.61,17.29-31.07,23.7-3.83,2.14-6.63,4.46-8.06,8.94-2.56,8.01-10.22,10.45-17.4,6.2-3.18-1.89-6.32-3.89-9.65-5.37-3.32-1.46-6.84-2.38-10.79-2.12-1.28.08-2.59-.48-3.89-.73-1.63-.31-3.11-.85-3.94-2.35,1.58-1.19,3.17-.54,4.78-.21.72.16,1.68.12,1.88-.86.07-.36-.04-.59-.23-.76-.26-.23-.66-.36-1-.52-3.17-1.58-6.44-3.01-9.42-4.88-3.91-2.44-8.67-4.04-11.01-8.28-1.98-3.57-4.36-6.19-8.13-7.85-2.51-1.1-4.78-2.84-6.18-5.38Zm42.22-6.34c-.06-5.45.24-10.86,1.56-16.18,2.76-11.15,2.98-22.32.06-33.49-.14-.54-.27-1.08-.31-1.63-.22-2.75.57-3.38,2.98-2.09,2.03,1.1,3.86,2.57,5.81,3.83,10.81,6.99,18.18,16.32,20.33,29.34,2.55,15.44-7.32,25.83-21.86,25.07-1.66.04-3.49-.38-5.34-.68-2.62-.41-3.2-1.96-3.23-4.17Zm2.15,177.18c-.21-3.96.57-4.5,5.4-2.61,2.88,1.13,5.74,2.35,8.72,3.13,3.09.81,4.31,2.94,4.68,5.68.7,5.26,1.29,10.53,1.69,15.81.24,3.09-1.21,4-4.11,2.79-4.17-1.73-8.3-3.62-12.47-5.34-1.73-.71-2.6-1.81-2.72-3.72-.3-4.85-.72-9.71-1.19-15.75Zm12.09,52.59c-.38-.49-.97-1.12-.49-1.77.51-.7,1.21-.17,1.79.08,2.9,1.29,4.61.05,5.78-2.6.51-1.15,1.09-2.37,2.79-2.91.25,2.06.03,3.63-1.3,5.07-.76.82-1.91,2.04-.55,3.15,1.31,1.05,2.54,0,3.52-.87.55-.49.97-1.23,1.24-1.93.99-2.55,2.03-5.09,2.45-7.75.27-1.65.3-3.34-.06-5.11-.33-1.66.33-2.53,2.18-2.29,8.02,1.02,15.84,2.86,23.44,5.89-2.37,1.13-4.78.73-7.16.68-4.85-.12-9.71-.27-14.57-.43-1.31-.05-2.5.4-2.65,1.45-.02.22,0,.47.06.73,1.19,4.64-1.66,7.86-3.67,11.33-1.57,2.69-4.85,2.8-6.91.43-.6-.67-.95-1.07-1.87-.84-2.05.53-3-1.01-4.02-2.31Zm22.72,151.13c-.48-1.14.78-2.25,1.6-3.09,3.95-3.96,8.21-7.39,13.93-8.61,3.55-.75,7.1-1.5,10.3-3.52,5.91-3.73,9.05-9.61,12.42-15.32,7-11.79,14.84-22.69,26.19-30.99,6.93-5.08,14.78-10.43,13.47-21.21-.22-1.77,1.19-1.46,2.3-.82,4.48,2.55,6.07,9.28,3.22,13.54-3.25,4.88-8.27,7.97-12.32,12.03-6.5,6.51-13.3,12.63-18.6,20.31-5.74,8.3-11.16,16.78-16.26,25.48-3.55,6.06-8.26,10.75-15.45,12.08-5.68,1.04-11.51.13-17.29,1.19-1.11-.5-2.92.3-3.5-1.06Zm3.98-416.6c-.59-1.79-.7-3.34,1.84-3.5,7.72,2.19,15.12,5.08,22.07,9.02,1.84,1.05,1.38,2.8.56,4.4-2.74,5.34-6.61,6.53-12.17,4.05-6.26-2.81-10.23-7.53-12.3-13.97Zm23.32,163.25c-2.23-4.56-2.42-5.46,2.05-7.94,10.93-6.08,22.12-5.31,33.28-.62,5.29,2.22,5.25,2.33,5.12,8.05-.47,16.4-6.36,31.1-14.15,45.2-1.31,2.37-2.92,2.08-4.39.23-3.93-4.94-9.04-8.82-12.54-14.17-1.31-2-3.11-3.56-1.29-6.09,1.62-2.23,2.2-6.08,6.52-4.15.57.26,1.37.13,1.66-.67.23-.63-.18-1.01-.7-1.31-7.37-4.34-11.87-11.02-15.55-18.53Zm48.72-7.52c3.7-.32,7.54,1.73,12.29,1.45-1.42,1.73-2.87,1.8-4.04,1.72-2.93-.18-3.27,1.19-3.31,3.74-.11,6.79-1.79,13.22-5.67,18.96,2.55-8.67,2.53-17.27.73-25.86Zm18.54-107.71c-1.31-.7-2.19-1.03-2.61-3.11,1.91.8,2.93.96,4.22,1.18,8.12,1.56,16.33,1.56,24.55,1.57,4.72,0,5.79-1.64,4.61-6.31-1.37-5.38-6.1-10.37-8.35-13.44-2.77-3.62-6.01-5.85-8.48-10.1,3,.44,5.04,1.87,6.81,3.38,10.05,8.51,17.28,18.66,18.71,32.19.26,2.44-1.25,2.99-3.03,2.87-12.54-.86-24.91-2.57-36.43-8.24Zm-13.27,8.99c9.78,3.4,18.98,7.76,28.76,10.56-8.09,1.57-26.73-5.28-28.76-10.56Zm30.01,111.64c.49-2.14,1.65-3.08,2.53-4.14,5.66-6.82,11.63-13.39,17-20.43,7.2-9.39,17.1-14.47,27.7-18.63,1.49-.59,3.69-1.25,4.48.22.77,1.42-1.46,2.18-2.54,2.98-12.05,8.87-23.65,18.31-35.23,27.78-4.61,3.76-8.29,8.61-13.93,12.21Zm7.03,55.7c1.34-.61,1.9-1.01,2.51-1.14,13.89-3.13,26.16-.12,36.43,9.91,5.5,5.37,5.14,12.15,3.85,18.98-.2,1.09-.74,2.3-2.03,2.34-1.44.05-1.57-1.45-1.91-2.39-1.29-3.55-2.47-7.19-4.85-10.15-6.16-7.68-14.42-12.09-23.76-14.78-3.13-.9-6.49-.97-10.24-2.77Zm21.66-168.06c0-1.6-.14-3.24,1.41-3.8,1.39-.49,2.35,1.02,3.14,2.03,6.25,8,7.44,17.09,9.12,26.02.1.55.21,1.11.33,3.11-1.31-2.08-1.36-2.16-1.4-2.23-.7-1.16-1.22-2.74-1.77-4.38-1.78-6.19-4.1-12.11-9.2-16.51-1.24-1.06-1.63-2.68-1.63-4.25Zm12.18,361.17c-1.35-.14-3.59-.05-3.48-1.7.08-1.14,2.22-1.25,3.59-1.38,9.65-.62,19.51-.03,27.81-6.66,3.2-2.55,5.26-6.13,4.34-10.97-1.02-5.37-3.87-10.05-6.57-14.78-5.91-10.33-5.58-21.9-6.19-33.24-.57-7.97,1.72-15.52,3.46-23.1.14-.58.27-1.16.39-1.74,2.73-12.67,4.83-25.43,5.32-38.35.43-11.42,1.56-23.07-4.07-33.84-.46-.87-.97-1.92,0-2.74.68-.57,1.57-.16,2.17.28,6.68,4.83,11.5,11.14,12.13,19.43,1.13,14.65-2.44,28.52-8.36,41.9-1.82,4.11-3.69,8.22-5.07,12.55-.31.97-.57,1.93-.8,2.9-1.78,7.62-1.21,15.34-.96,23.05.27,8.24,2.19,16.28,4.61,24.05,2.27,7.33,7.45,13.3,11.91,19.47,2.51,3.46,3.7,7.07,3.85,11.04.25,6.47.08,6.47-6.27,8.58-.89.26-1.3.42-7.18,2.76-5.89,2.34-18.08,3.84-30.63,2.49Zm-1.3-242.91c-.15-1.11.78-1.56,1.32-2.12,5.02-4.72,9.65-9.86,13.64-15.39,3.41-4.72,8.25-4.76,12.99-6.66-2.18,8.35-18.72,20.55-27.95,24.17Z"
         style="fill: #af0105; stroke-width: 0px;"
         id="path2" />
      <path
         d="m170.48,199.31c2.24,1.62,4.48,3.03,6.53,4.37,1.57,1.03,3.04,2.01,5.8,3.22,1.07.48,2.33.98,3.39,1.21.83.18,1.54.2,2.24.22,2.76,0,5.52.22,8.19,1.07.66.21,1.32.32,1.84-.27.58-.66.02-1.21-.26-1.79-.92-2-2.33-3.3-4.67-3.44-.32-.02-.64-.04-.95-.05-4.72-.26-9.31-.43-14.14-2.11-.75-.27-1.54-.68-2.29-1.12-1.35-.79-2.63-1.66-3.87-2.6l-1.8,1.29Z"
         style="fill: #af0105; stroke-width: 0px;"
         id="path4" />
      <path
         d="m213.99,191.65c-1.23.28-1.02,1.24-.87,2.13.81,5.06,4.24,8.65,7.08,12.57,3.63,5,9.19,6.24,14.74,7.4,2.34.49,4.69,1.38,7.17.72,1.64-.43,3.45-.54,4.73-2.43-2.79-.91-5.44-.74-8-1.01-6.78-.7-11.93-4.19-16.47-9.01-2.66-2.82-5.36-5.55-6.52-9.39-.27-.88-1.01-1.17-1.86-.99Z"
         style="fill: #af0105; stroke-width: 0px;"
         id="path6" />
      <path
         d="m246.61,234.01c-.99.17-.65,1.24-.81,1.72.27,8.99,8.76,20.12,17.16,22.76,1.46.46,2.91,1.03,4.39,1.44.48.13,1.17.05,1.36-.59.22-.73-.42-.89-.93-1.07-10.85-3.84-16.1-12.49-19.41-22.74-.33-.99-.78-1.7-1.77-1.52Z"
         style="fill: #af0105; stroke-width: 0px;"
         id="path8" />
      <path
         d="m259.43,261.69c-1.16,3.11-2.09,6.29-2.05,9.66.07,4.5,2.25,8.23,4.45,11.94.34.59.92,1.06,1.66.74,1.24-.53.32-1.28.07-1.9-2.58-6.43-4.7-12.91-2.23-19.9.24-.67.47-1.36-.31-1.7-1.04-.46-1.32.44-1.58,1.16Z"
         style="fill: #af0105; stroke-width: 0px;"
         id="path10" />
    </g>
  </g>
  <text
     transform="translate(157.98 528.88)"
     style="font-family: TimesNewRomanPSMT, 'Times New Roman'; font-size: 18px;"
     id="text17"><tspan
       x="0"
       y="0"
       id="tspan15">templatesarea.com</tspan></text>
  <metadata
     id="metadata1168">
    <rdf:RDF>
      <cc:License
         rdf:about="http://creativecommons.org/licenses/by-nc/4.0/">
        <cc:permits
           rdf:resource="http://creativecommons.org/ns#Reproduction" />
        <cc:permits
           rdf:resource="http://creativecommons.org/ns#Distribution" />
        <cc:requires
           rdf:resource="http://creativecommons.org/ns#Notice" />
        <cc:requires
           rdf:resource="http://creativecommons.org/ns#Attribution" />
        <cc:prohibits
           rdf:resource="http://creativecommons.org/ns#CommercialUse" />
        <cc:permits
           rdf:resource="http://creativecommons.org/ns#DerivativeWorks" />
      </cc:License>
      <cc:Work
         rdf:about="">
        <cc:license
           rdf:resource="http://creativecommons.org/licenses/by-nc/4.0/" />
        <dc:title>Spiderman Silhouette SVG Cutting File - Free Cricut Design</dc:title>
        <dc:description>High-quality Spiderman silhouette SVG cutting file for Cricut users and crafters. This versatile image can be used to create a variety of crafts, such as custom apparel, vinyl decals, greeting cards, and more.</dc:description>
        <dc:rights>
          <cc:Agent>
            <dc:title>https://www.templatesarea.com/license-agreement/</dc:title>
          </cc:Agent>
        </dc:rights>
        <dc:creator>
          <cc:Agent>
            <dc:title>templatesarea.com</dc:title>
          </cc:Agent>
        </dc:creator>
        <dc:publisher>
          <cc:Agent>
            <dc:title>templatesarea.com</dc:title>
          </cc:Agent>
        </dc:publisher>
      </cc:Work>
    </rdf:RDF>
  </metadata>
</svg>
