/* XPM */
static char *format_stl[] = {
/* columns rows colors chars-per-pixel */
"32 32 3 1 ",
"  c None",
". c black",
"X c #010000",
/* pixels */
"                                ",
"                    .           ",
"      ..           ...          ",
"      .               .         ",
"                       .        ",
"                        .       ",
"                         .      ",
"                    .     .     ",
"                    .      .    ",
"                          .     ",
"                          .     ",
"         ....... .......  .     ",
"                          .     ",
"         ..........  ...  .     ",
"                          .     ",
"         ....... .......  .     ",
"                          .     ",
"         ..........  ...  .     ",
"                          .     ",
"                          .     ",
"                     .    .     ",
"                 ..  .    .     ",
"            .XX. ... X    .     ",
"            X.   .   .    .     ",
"            .X.  X   X    .     ",
"              .. .   X    .     ",
"         .. ...  .XX X    .     ",
"                          .     ",
"                          .     ",
"      .                   .     ",
"      ....................      ",
"                                "
};