/* XPM */
static char *_d8f9ffbe69f41dc9075e373a3322d0fatY7hc175q7u6TQn[] = {
/* columns rows colors chars-per-pixel */
"32 32 82 1 ",
"  c None",
". c #2D2E2D",
"X c #3A3A38",
"o c #40403D",
"O c #40423D",
"+ c #42423F",
"@ c #42433F",
"# c #434440",
"$ c #484744",
"% c #4D4C48",
"& c #4C4D49",
"* c #4E4E49",
"= c #4F504A",
"- c #4F504C",
"; c #52544F",
": c #54554F",
"> c #575751",
", c #5B5B56",
"< c #67665F",
"1 c #68685F",
"2 c #696960",
"3 c #696961",
"4 c #6C6D65",
"5 c #706F67",
"6 c #73736A",
"7 c #74736A",
"8 c #75736B",
"9 c #78766D",
"0 c #7A7A70",
"q c #7D7B71",
"w c #7E7C74",
"e c #7E7D74",
"r c #86857B",
"t c #87857B",
"y c #88877C",
"u c #89887D",
"i c #8B8A7F",
"p c #8F8D82",
"a c #959389",
"s c #969489",
"d c #97968A",
"f c #99978C",
"g c #99988C",
"h c #9B998D",
"j c #9C9A8F",
"k c #9D9B8F",
"l c #9E9C90",
"z c #A7A699",
"x c #ADAB9E",
"c c #B0AEA0",
"v c #B1AFA2",
"b c #B2AFA2",
"n c #B4B2A4",
"m c #B5B3A5",
"M c #B7B5A7",
"N c #B9B7A9",
"B c #BBB9AB",
"V c #C0BEAF",
"C c #C2C0B1",
"Z c #C3C0B2",
"A c #C5C2B3",
"S c #C7C4B5",
"D c #C9C7B7",
"F c #CBC9B9",
"G c #CDCBBB",
"H c #CECBBC",
"J c #CFCCBC",
"K c #D4D1C1",
"L c #D6D3C3",
"P c #D9D7C6",
"I c #DCD9C9",
"U c #DDDBCA",
"Y c #E1DECD",
"T c #E2DFCE",
"R c #E5E2D0",
"E c #E8E5D4",
"W c #F0EDDB",
"Q c #F1EEDC",
"! c #F2EFDC",
"~ c #F3F0DD",
"^ c #F5F2DF",
"/ c #F6F3E0",
/* pixels */
"                                ",
"      4avMMMMMMMMMm8O           ",
"     9I///////////~j=#          ",
"     m////////////~j&>#         ",
"     Y////////////!l*>>O        ",
"    qE////////////^A&;->o       ",
"    qE/////////////Y3>;;>@      ",
"    qE/////////////!x,;;::#     ",
"    qE//////////////!Dy5<<#$    ",
"    qE///////////////^!WWWW1    ",
"    qE/////////////////////2    ",
"    qE/////////////////////2    ",
"    qE/EVY/IBR//I///P^GMME/2    ",
"    qERo..S...tD.C/v.z...d/2    ",
"    qEEgA.p.VB.g.>^%.a.MB~/2    ",
"    qE/D..N.P/.e..x..d...P/2    ",
"    qEPmP&8.PA.f.X...d.PI^/2    ",
"    qEJ...No..6N.j.j.j.^///2    ",
"    qE/LML/YML/^L^G^L^L////2    ",
"    qE///^//^^//^//^///////2    ",
"    qE//////////^//////////2    ",
"    qE//VuuuuuuuuuuuuuuM///2    ",
"    qE/////////////////////2    ",
"    qE/////////////////////2    ",
"    qE//VuuuuuuuuuuuuuuM///2    ",
"    qE/////////////////////2    ",
"    qE/////////////////////2    ",
"    0R//VuuuuuuuuuuuuuuM///2    ",
"     G^^//////////////////R     ",
"     t^///////////////////i     ",
"      qJPPPPPPPPPPPPPPPPLt      ",
"                                "
};
