/* XPM */
static char *format_obj[] = {
/* columns rows colors chars-per-pixel */
"32 32 86 1 ",
"  c None",
". c #06178D",
"X c #07188D",
"o c #08198E",
"O c #0B1C8F",
"+ c #0E1E91",
"@ c #102091",
"# c #112191",
"$ c #142493",
"% c #162694",
"& c #1B2B97",
"* c #1F2F99",
"= c #25349B",
"- c #26359C",
"; c #27369C",
": c #2C3A9E",
"> c #2F3DA0",
", c #313FA1",
"< c #3240A1",
"1 c #3644A3",
"2 c #3845A4",
"3 c #3946A4",
"4 c #3F4CA2",
"5 c #4854A6",
"6 c #4451AA",
"7 c #4653AB",
"8 c #4855AB",
"9 c #4A57AC",
"0 c #4F5BAF",
"q c #515DAF",
"w c #5561B1",
"e c #5D68B5",
"r c #5F6AB6",
"t c #616CB7",
"y c #646EB8",
"u c #656FB8",
"i c #6770B2",
"p c #6A74BB",
"a c #6E78BD",
"s c #727BB6",
"d c #727CBF",
"f c #7881C1",
"g c #7A83C2",
"h c #7B84C3",
"j c gray71",
"k c gray72",
"l c gray75",
"z c #8B93CA",
"x c #8D95CB",
"c c #9198CC",
"v c #939ACD",
"b c #979FD0",
"n c #9BA2D1",
"m c #A6AAC9",
"M c #A6ACD6",
"N c #A7ADD7",
"B c #A8AED7",
"V c #AAB0D8",
"C c #ACB2D9",
"Z c #B5BADD",
"A c #B9BDDF",
"S c #BABEDF",
"D c #BCC0E0",
"F c #BEC2E1",
"G c #C0C0C0",
"H c #C1C1C1",
"J c gray77",
"K c gray78",
"L c #CBCBCB",
"P c gray80",
"I c gray81",
"U c #C4C6D5",
"Y c gray82",
"T c #D2D2D2",
"R c LightGray",
"E c #D7D7D7",
"W c #D2D3DA",
"Q c #D9DADD",
"! c gray87",
"~ c #DFDFDF",
"^ c #C0C4E2",
"/ c #C1C5E2",
"( c #C3C7E4",
") c #CED2E9",
"_ c #D6D9EC",
"` c gray88",
/* pixels */
"    `~~~~~~~~~~~~~~~YG          ",
"    ~~~~~~~~~~~~~~~~Yjl         ",
"   ~~~~~~~~~~~~~~~~~Yjjl        ",
"   ~~~~~~~~~~~~~~~~~Pjjjl       ",
"   ~~~~~~~~~~~~~~~~~Pjjjjl      ",
"   ~~~~~~~~~~~~~~~~~Yjjjjjl     ",
"   ~~~~~~~~~~~~~~~~~YjjjjjjG    ",
"   ~~~~~~~~~~~~~~~~~`LjkkkkkJ   ",
"   ~~~~~~~~~~~~~~~~~~~~~~~~~~   ",
"   ~~~YYYYYYYYYYYYYYYYE`~~~~~   ",
"   ~~~PLLLLLLLLLLLLLLLY`~~~~~   ",
"   ~~~~~~~~~~~~~~~~~~~~~~~~~~   ",
"   ~~~LLLLLLLLLLLLLLLLY`~~~~~   ",
"   ~~~YYYYYYYYYYYYYYYYE`~~~~~   ",
"   ~~~~~~~~~~~~~~~~~~~~~~~~~~   ",
"   5...................#s~~~~   ",
"   5....................XW~~~   ",
"   5....6bx=.1zzd+...p...U~~~   ",
"   5...qB&=S=yg:un.../...U_~`   ",
"   5..XD&X.6zyg;ev.../...U`~`   ",
"   5...)...,MyDnSgX../..XU~~`   ",
"   5...B>..tgyy.._-3.(...U~~`   ",
"   5...:^taD$yCgvZ-FaN...U~~`   ",
"   5....%q9O.*861X.,w#...U~~~   ",
"   5....................#Q~~~   ",
"   i64444444444444444465m~~~~   ",
"   ~~~!!~~~~~~~~~~~~!!~~~~~~~   ",
"   ~~~~~~~~~~~~~~~~~~~~~~~~~~   ",
"   ~~~~~~~~~~~~~~~~~~~~~~~~~~   ",
"   ~~~~~~~~~~~~~~~~~~~~~~~~~~   ",
"    ~~~~~~~~~~~~~~~~~~~~~~~~    ",
"    ~~~~~~~~~~~~~~~~~~~~~~~~    "
};
